<svg id="Livello_2" data-name="Livello 2" xmlns="http://www.w3.org/2000/svg" viewBox="0 0 120.75 117.12"><defs><style>.cls-1{fill:#ee7a0e;}.cls-2{fill:#fff;}.cls-3{fill:#070c39;}.cls-4{fill:#0072f6;}</style></defs><title>Transparent Logo Calibrify</title><path class="cls-1" d="M43,99.13V83.45A11.11,11.11,0,0,1,31.89,72.34V40.06A19.84,19.84,0,0,1,51.73,20.22h16.8A19.83,19.83,0,0,1,88.09,36.91h8.44a3.9,3.9,0,0,1,0,7.8H88.37v5.64a2.18,2.18,0,0,1,0,2.1v18.8A17.41,17.41,0,0,1,71,88.65H66.53V99.13h3.29a18.45,18.45,0,0,1,12.43,4.81,51.46,51.46,0,1,0-48.53-2.3A18.35,18.35,0,0,1,43,99.13Z"/><path class="cls-2" d="M74.89,49.58c6.31-4.14,12.51-.17,12.77,0a2.17,2.17,0,0,1,.71.77V44.71H43V57.85a8.61,8.61,0,0,1,0,16.5V99.13H66.54V88.65H71a17.41,17.41,0,0,0,17.41-17.4V52.45l-.08.15a2.17,2.17,0,0,1-3,.63c-.19-.12-4.13-2.55-8,0a2.2,2.2,0,0,1-1.19.36h0a2.2,2.2,0,0,1-1.83-1A2.18,2.18,0,0,1,74.89,49.58Zm-14,17.6a4.1,4.1,0,0,1-4.1-4.1V60.43a4.15,4.15,0,0,1,.44-1.83H55.73a2.18,2.18,0,0,1,0-4.36H66.11a2.18,2.18,0,1,1,0,4.36H64.58A4.15,4.15,0,0,1,65,60.43v2.65A4.1,4.1,0,0,1,60.92,67.18Zm16.25-6.75a4.11,4.11,0,1,1,8.21,0v2.65a4.11,4.11,0,0,1-8.21,0ZM75.3,73.22a2.18,2.18,0,0,1,2.38,3.65,11,11,0,0,1-6.16,1.88h0a13,13,0,0,1-6.58-1.88,2.18,2.18,0,0,1,2.37-3.65C67.48,73.34,71.42,75.78,75.3,73.22Z"/><path class="cls-3" d="M40.51,57.47a8.73,8.73,0,0,1,2.47.37V44.71H31.89V66.09A8.62,8.62,0,0,1,40.51,57.47Z"/><path class="cls-3" d="M40.51,74.71a8.62,8.62,0,0,1-8.62-8.62v6.25A11.11,11.11,0,0,0,43,83.45v-9.1A8.73,8.73,0,0,1,40.51,74.71Z"/><polygon class="cls-3" points="42.99 74.34 42.98 74.34 42.98 83.45 42.99 83.45 42.99 74.34"/><polygon class="cls-3" points="42.98 57.84 42.99 57.84 42.99 44.71 42.98 44.71 42.98 57.84"/><path class="cls-4" d="M43,40.06h.08a3.9,3.9,0,0,1,3.82-3.15h41.2A19.83,19.83,0,0,0,68.53,20.22H51.73A19.84,19.84,0,0,0,31.89,40.06H43Z"/><path class="cls-4" d="M43,40.81v3.9h3.9A3.91,3.91,0,0,1,43,40.81Z"/><path class="cls-4" d="M43.07,40.06H43v.75A3.67,3.67,0,0,1,43.07,40.06Z"/><rect class="cls-4" x="31.89" y="40.06" width="11.1" height="4.65"/><polygon class="cls-4" points="42.99 40.06 42.98 40.06 42.98 44.71 42.99 44.71 42.99 40.81 42.99 40.06"/><path class="cls-2" d="M49.12,66.09A8.62,8.62,0,0,0,43,57.84v16.5A8.6,8.6,0,0,0,49.12,66.09Z"/><path class="cls-2" d="M40.51,74.71A8.73,8.73,0,0,0,43,74.35V57.84a8.73,8.73,0,0,0-2.47-.37,8.62,8.62,0,0,0,0,17.24Z"/><polygon class="cls-2" points="42.98 74.34 42.99 74.34 42.99 57.84 42.98 57.84 42.98 74.34"/><path class="cls-3" d="M81.27,67.18a4.11,4.11,0,0,0,4.11-4.11V60.42a4.11,4.11,0,0,0-8.21,0v2.65A4.11,4.11,0,0,0,81.27,67.18Z"/><path class="cls-3" d="M65,60.42a4.14,4.14,0,0,0-.44-1.82H57.26a4.14,4.14,0,0,0-.44,1.82v2.65a4.1,4.1,0,1,0,8.2,0Z"/><path class="cls-3" d="M88.37,44.71h8.16a3.9,3.9,0,0,0,0-7.8H88.09a19.32,19.32,0,0,1,.28,3.15Z"/><path class="cls-3" d="M43.07,40.06h45.3a19.32,19.32,0,0,0-.28-3.15H46.89A3.9,3.9,0,0,0,43.07,40.06Z"/><path class="cls-3" d="M43.07,40.06a3.67,3.67,0,0,0-.08.75,3.91,3.91,0,0,0,3.9,3.9H88.37V40.06Z"/><path class="cls-3" d="M82.25,103.94a51.5,51.5,0,0,1-48.53-2.3A18.45,18.45,0,0,1,43,99.13H69.82A18.45,18.45,0,0,1,82.25,103.94Z"/><path class="cls-3" d="M88.37,50.35v2.1A2.18,2.18,0,0,0,88.37,50.35Z"/><path class="cls-3" d="M87.66,49.58c-.26-.18-6.46-4.14-12.77,0a2.18,2.18,0,0,0,1.2,4h0a2.19,2.19,0,0,0,1.19-.35c3.88-2.56,7.82-.12,8,0a2.17,2.17,0,0,0,3-.64s0-.09.08-.14v-2.1A2.17,2.17,0,0,0,87.66,49.58Z"/><path class="cls-3" d="M60.92,56.32a4.09,4.09,0,0,1,3.66,2.28h1.53a2.18,2.18,0,1,0,0-4.36H55.73a2.18,2.18,0,0,0,0,4.36h1.53A4.09,4.09,0,0,1,60.92,56.32Z"/><path class="cls-3" d="M60.92,56.32a4.09,4.09,0,0,0-3.66,2.28h7.32A4.09,4.09,0,0,0,60.92,56.32Z"/><path class="cls-3" d="M71.5,78.74a11,11,0,0,0,6.18-1.88,2.17,2.17,0,1,0-2.38-3.64c-3.88,2.55-7.82.12-8,0a2.18,2.18,0,0,0-2.37,3.65,13,13,0,0,0,6.6,1.88Z"/></svg>