<svg xmlns="http://www.w3.org/2000/svg" viewBox="19.99999999999993 139.38493444434764 503.74799389648445 296.2301311113047"> <g transform="rotate(0 163.29920808338636 287.5)"><svg xmlns="http://www.w3.org/2000/svg" id="Livello_2" dataName="Livello 2" viewBox="0 0 219.18402099609375 233.5800018310547" height="156.23013111130473" width="146.59841616677286" y="209.38493444434764" x="89.99999999999993" preserveAspectRatio="xMinYMin" fill="#0072f6" style="overflow: visible;"><circle id="Livello_1-2" dataName="Livello 1" cx="76.93" cy="76.93" r="76.93" fill="#ffac21" style="fill: #EE7A0E;"></circle><path id="Livello_1-2" dataName="Livello 1" d="M119.15,50.89v46.63c0,14.37-11.65,26.02-26.02,26.02h-6.62v15.67h-35.21V50.89h67.85Z" fill="#fff" style="fill: #fff;"></path><path id="Livello_1-2" dataName="Livello 1" d="M34.71,50.89v48.27c0,9.17,7.43,16.6,16.6,16.6V50.89h-16.6Z" fill="#070c39" style="fill: #070c39;"></path><path id="Livello_1-2" dataName="Livello 1" d="M119.15,50.89v6.95H34.71v-6.95h0c0-16.38,13.28-29.66,29.66-29.66h25.12c16.38,0,29.66,13.28,29.66,29.66h0Z" fill="#0072f6" style="fill: #0072f6;"></path><rect id="Livello_1-2" dataName="Livello 1" x="34.71" y="76.93" width="25.77" height="25.77" rx="12.89" ry="12.89" fill="#fff" style="fill: #fff;"></rect><rect id="Livello_1-2" dataName="Livello 1" x="102.41" y="75.2" width="12.27" height="16.24" rx="6.14" ry="6.14" fill="#070c39" style="fill: #070c39;"></rect><rect id="Livello_1-2" dataName="Livello 1" x="71.98" y="75.2" width="12.27" height="16.24" rx="6.14" ry="6.14" fill="#070c39" style="fill: #070c39;"></rect><rect id="Livello_1-2" dataName="Livello 1" x="51.31" y="46.19" width="85.87" height="11.65" rx="5.83" ry="5.83" fill="#003fc4" style="fill: #070c39; fill-opacity: 1;"></rect><path id="Livello_1-2" dataName="Livello 1" d="M91.42,139.21h-40.11c-14.75,0-26.77,11.52-27.65,26.04v42.28c.88,14.53,12.9,26.04,27.65,26.04h40.11c14.75,0,26.77-11.52,27.65-26.04v-42.28c-.88-14.53-12.9-26.04-27.65-26.04Z" fill="#070c39" style="fill: #070c39;"></path><rect id="Livello_1-2" dataName="Livello 1" x="79.62" y="187.85" width="42.33" height="42.33" rx="21.16" ry="21.16" fill="#fff" style="fill: #fff;"></rect><path d="M196.5,233.58h-86.98c-4.92,0-8.55-4.61-7.4-9.39l15.07-62.49c.82-3.42,3.88-5.82,7.4-5.82h86.98c4.92,0,8.55,4.61,7.4,9.39l-15.07,62.49c-.82,3.42-3.88,5.82-7.4,5.82Z" fill="#d2d2db" style="fill: #0072f6; fill-opacity: 1;"></path><rect x="66.6" y="220.83" width="69.92" height="12.75" rx="6.38" ry="6.38" fill="#d2d2db" style="fill: #0072f6; fill-opacity: 1;"></rect><path d="M149.46,194.76c.81-6.92,7.07-12.55,13.99-12.55s11.84,5.63,10.99,12.55c-.84,6.91-7.1,12.49-13.98,12.49s-11.81-5.58-11-12.49Z" fill="#fff" style="fill: #fff;"></path><path id="Livello_1-2" dataName="Livello 1" d="M100.79,71.1c-1.06,0-2.1-.52-2.73-1.47-.99-1.5-.57-3.52.94-4.51,9.44-6.19,18.71-.26,19.1,0,1.5.99,1.92,3,.94,4.51-.98,1.5-2.99,1.92-4.49.95-.28-.18-6.17-3.82-11.98,0-.55.36-1.17.53-1.78.53Z" fill="#070c39" style="fill: #070c39;"></path><path id="Livello_1-2" dataName="Livello 1" d="M85.88,78.61h-15.53c-1.8,0-3.26-1.46-3.26-3.26s1.46-3.26,3.26-3.26h15.53c1.8,0,3.26,1.46,3.26,3.26s-1.46,3.26-3.26,3.26Z" fill="#070c39" style="fill: #070c39;"></path><path id="Livello_1-2" dataName="Livello 1" d="M93.96,108.74c-5.49,0-9.61-2.64-9.87-2.81-1.5-.99-1.92-3-.94-4.51.98-1.5,2.99-1.92,4.49-.95.29.18,6.17,3.82,11.97,0,1.5-.99,3.52-.57,4.51.94.99,1.5.57,3.52-.94,4.51-3.21,2.11-6.41,2.81-9.24,2.81Z" fill="#070c39" style="fill: #070c39;"></path><path id="Livello_1-2" dataName="Livello 1" d="M185.41,117.45l-3.08-.45c-2.03-.3-3.63-1.89-3.93-3.93l-.45-3.08c-.33-2.28-2.29-3.97-4.6-3.97h0c-2.31,0-4.26,1.69-4.6,3.97l-.45,3.08c-.3,2.03-1.89,3.63-3.93,3.93l-3.08.45c-2.28.33-3.97,2.29-3.97,4.6h0c0,2.31,1.69,4.26,3.97,4.6l3.08.45c2.03.3,3.63,1.89,3.93,3.93l.45,3.08c.33,2.28,2.29,3.97,4.6,3.97h0c2.31,0,4.26-1.69,4.6-3.97l.45-3.08c.3-2.03,1.89-3.63,3.93-3.93l3.08-.45c2.28-.33,3.97-2.29,3.97-4.6h0c0-2.31-1.69-4.26-3.97-4.6Z" fill="#ffac21" style="fill: #EE7A0E;"></path><path id="Livello_1-2" dataName="Livello 1" d="M189.95,70.04l-2.42-.35c-1.6-.23-2.85-1.49-3.08-3.08l-.35-2.42c-.26-1.79-1.8-3.12-3.61-3.12h0c-1.81,0-3.35,1.33-3.61,3.12l-.35,2.42c-.23,1.6-1.49,2.85-3.08,3.08l-2.42.35c-1.79.26-3.12,1.8-3.12,3.61h0c0,1.81,1.33,3.35,3.12,3.61l2.42.35c1.6.23,2.85,1.49,3.08,3.08l.35,2.42c.26,1.79,1.8,3.12,3.61,3.12h0c1.81,0,3.35-1.33,3.61-3.12l.35-2.42c.23-1.6,1.49-2.85,3.08-3.08l2.42-.35c1.79-.26,3.12-1.8,3.12-3.61h0c0-1.81-1.33-3.35-3.12-3.61Z" fill="#ffac21" style="fill: #EE7A0E;"></path></svg></g> <g transform="rotate(0 345.1729969482422 287.4999994659424)"><svg xmlns="http://www.w3.org/2000/svg" y="264.065" viewBox="1.8899999856948853 12.470000267028809 217.14999389648438 46.869998931884766" x="236.598" height="46.869998931884766" width="217.14999389648438" style="overflow: visible;"><g fill="#EE7A0E" fill-opacity="1" style=""><path d="M18.71 49.98L18.71 49.98Q10.53 49.98 6.21 45.66Q1.89 41.35 1.89 32.30L1.89 32.30Q1.89 23.51 6.03 18.99Q10.17 14.46 18.71 14.46L18.71 14.46Q21.41 14.46 24.17 15.13Q26.93 15.79 29.54 16.97L29.54 16.97L29.54 24.17Q26.88 22.44 24.43 21.67Q21.98 20.90 19.83 20.90L19.83 20.90Q16.81 20.90 14.74 21.98Q12.67 23.05 11.58 25.55Q10.48 28.06 10.48 32.30L10.48 32.30Q10.48 36.54 11.58 38.99Q12.67 41.45 14.85 42.50Q17.02 43.54 20.19 43.54L20.19 43.54Q22.08 43.54 24.48 42.83Q26.88 42.11 29.54 40.37L29.54 40.37L29.54 47.58Q28.11 48.30 26.29 48.83Q24.48 49.37 22.51 49.68Q20.55 49.98 18.71 49.98ZM47.07 50.08L47.07 50.08Q44.72 50.08 42.65 49.65Q40.58 49.22 39.02 48.22Q37.46 47.22 36.59 45.51Q35.72 43.80 35.72 41.24L35.72 41.24Q35.72 38.84 36.72 37.05Q37.72 35.26 39.76 34.29Q41.81 33.32 44.92 33.32L44.92 33.32Q46.66 33.32 48.30 33.68Q49.93 34.04 51.23 34.65Q52.54 35.26 53.30 35.98L53.30 35.98L53.61 39.66Q52.59 39.05 51.16 38.69Q49.73 38.33 48.09 38.33L48.09 38.33Q45.59 38.33 44.44 39.07Q43.29 39.81 43.29 41.40L43.29 41.40Q43.29 42.37 43.85 43.13Q44.41 43.90 45.36 44.31Q46.30 44.72 47.33 44.72L47.33 44.72Q49.93 44.72 50.98 44.36Q52.03 44.00 52.03 42.93L52.03 42.93L52.03 33.42Q52.03 31.07 50.52 30.03Q49.01 28.98 46.25 28.98L46.25 28.98Q44.00 28.98 41.73 29.77Q39.45 30.56 38.02 31.69L38.02 31.69L38.02 24.94Q39.35 24.12 42.14 23.41Q44.92 22.69 48.40 22.69L48.40 22.69Q49.62 22.69 51.11 22.90Q52.59 23.10 54.07 23.64Q55.55 24.17 56.81 25.20Q58.06 26.22 58.82 27.80Q59.59 29.39 59.59 31.74L59.59 31.74L59.54 43.95Q59.54 46.15 58.06 47.50Q56.58 48.86 53.79 49.47Q51.00 50.08 47.07 50.08ZM75.43 13.70L75.43 49.32L67.87 49.32L67.87 13.70L75.43 13.70ZM91.53 49.32L83.87 49.32L83.87 23.82L91.48 23.82L91.53 49.32ZM91.58 19.93L83.71 19.93L83.71 14.05L91.58 14.05L91.58 19.93ZM111.72 50.08L111.72 50.08Q109.57 50.08 107.45 49.80Q105.33 49.52 103.62 48.78Q101.91 48.04 100.89 46.74Q99.86 45.43 99.86 43.34L99.86 43.34L99.86 13.90L107.32 13.90L107.32 28.01L105.89 25.60Q106.81 24.53 108.24 23.89Q109.68 23.25 111.16 23.00Q112.64 22.74 113.61 22.74L113.61 22.74Q119.33 22.74 122.32 26.19Q125.31 29.64 125.31 36.29L125.31 36.29Q125.31 40.17 124.29 42.83Q123.27 45.49 121.43 47.07Q119.59 48.65 117.14 49.37Q114.68 50.08 111.72 50.08ZM111.62 43.75L111.62 43.75Q113.87 43.75 115.20 42.85Q116.52 41.96 117.11 40.37Q117.70 38.79 117.70 36.75L117.70 36.75Q117.70 33.83 116.93 32.10Q116.17 30.36 114.84 29.59Q113.51 28.82 111.77 28.82L111.77 28.82Q110.75 28.82 109.52 29.08Q108.30 29.34 107.32 29.90L107.32 29.90L107.32 41.35Q107.32 42.27 107.89 42.78Q108.45 43.29 109.45 43.52Q110.44 43.75 111.62 43.75ZM139.73 49.32L132.11 49.32L132.11 26.17Q132.83 25.55 134.67 24.76Q136.51 23.97 138.88 23.33Q141.26 22.69 143.66 22.69L143.66 22.69Q146.06 22.69 147.44 23.05Q148.82 23.41 149.54 23.97L149.54 23.97L149.54 29.54Q148.67 29.34 147.34 29.23Q146.01 29.13 144.58 29.11Q143.15 29.08 141.87 29.13Q140.60 29.18 139.73 29.34L139.73 29.34L139.73 49.32ZM163.34 49.32L155.67 49.32L155.67 23.82L163.29 23.82L163.34 49.32ZM163.39 19.93L155.52 19.93L155.52 14.05L163.39 14.05L163.39 19.93ZM181.23 49.32L173.61 49.32L173.61 29.28L169.78 29.28L169.78 23.46L173.66 23.46L173.66 22.84Q173.66 20.34 174.17 18.55Q174.68 16.76 175.60 15.56Q176.52 14.36 177.75 13.70Q178.98 13.03 180.46 12.75Q181.94 12.47 183.53 12.47L183.53 12.47Q184.34 12.47 185.31 12.60Q186.28 12.73 186.90 12.98L186.90 12.98L186.90 19.73Q186.44 19.17 185.88 18.86Q185.31 18.55 184.34 18.55L184.34 18.55Q183.68 18.55 183.12 18.71Q182.55 18.86 182.15 19.22Q181.74 19.57 181.51 20.24Q181.28 20.90 181.28 21.92L181.28 21.92L181.28 23.46L186.90 23.46L186.90 29.28L181.23 29.28L181.23 49.32ZM198.96 59.34L198.96 59.34Q197.68 59.34 196.46 59.08Q195.23 58.82 194.36 58.42L194.36 58.42L194.36 52.23Q195.18 52.54 195.89 52.67Q196.61 52.79 197.38 52.79L197.38 52.79Q198.65 52.79 199.60 52.21Q200.54 51.62 201.16 50.21Q201.77 48.81 202.13 46.41L202.13 46.41L202.28 50.75L191.19 23.46L199.93 23.46L205.81 41.60L205.04 41.60L210.87 23.46L219.04 23.46L208.87 49.73Q207.49 53.30 205.88 55.40Q204.27 57.50 202.54 58.42Q200.80 59.34 198.96 59.34Z" transform="translate(0, 0)"></path></g></svg></g></svg>