<?xml version="1.0" encoding="iso-8859-1"?>
<!-- Generator: Adobe Illustrator 19.0.0, SVG Export Plug-In . SVG Version: 6.00 Build 0)  -->
<svg version="1.1" id="Layer_1" xmlns="http://www.w3.org/2000/svg" xmlns:xlink="http://www.w3.org/1999/xlink" x="0px" y="0px"
	 viewBox="0 0 512 512" style="enable-background:new 0 0 512 512;" xml:space="preserve">
<rect x="97.649" y="229.608" style="fill:#00ABD5;" width="316.701" height="158.351"/>
<path style="fill:#7E8488;" d="M303.505,7.918c26.181,0,47.505,21.325,47.505,47.505c0,13.09-5.278,24.914-13.935,33.57
	c-8.657,8.656-20.48,13.935-33.57,13.935h-95.01c-26.181,0-47.505-21.325-47.505-47.505c0-13.09,5.278-24.914,13.935-33.57
	c8.656-8.656,20.48-13.935,33.57-13.935C208.495,7.918,303.505,7.918,303.505,7.918z"/>
<polygon style="fill:#AFB6BB;" points="424.907,129.32 424.907,176.825 87.093,176.825 87.093,129.32 113.485,102.928 
	208.495,102.928 303.505,102.928 398.515,102.928 "/>
<path style="fill:#595E62;" d="M50.144,440.742V176.825h36.948h337.814h36.948v263.918h5.278l26.392,31.67v31.67H18.474v-31.67
	l26.392-31.67C44.866,440.742,46.766,440.742,50.144,440.742z M414.351,387.959V229.608H97.649v158.351H414.351z"/>
<path style="fill:#373C3F;" d="M461.856,440.742H50.144c-3.378,0-5.278,0-5.278,0l-26.392,31.67v31.67h475.052v-31.67l-26.392-31.67
	H461.856z"/>
<path style="fill:#0096CB;" d="M152.963,229.608H97.649v158.351h316.701v-38.687C299.092,340.078,201.959,293.813,152.963,229.608z"
	/>
<polygon style="fill:#969DA2;" points="208.495,102.928 113.485,102.928 87.093,129.32 87.093,176.825 256,176.825 256,102.928 "/>
<path d="M470.843,432.825h-1.069V168.907h-36.948v-42.867l-31.03-31.03h-59.56c0.145-0.141,0.296-0.274,0.439-0.418
	c10.482-10.483,16.254-24.393,16.254-39.17C358.928,24.863,334.065,0,303.505,0h-95.01c-14.777,0-28.688,5.772-39.169,16.253
	c-10.482,10.483-16.254,24.393-16.254,39.17c0,15.496,6.401,29.52,16.688,39.588h-59.555l-31.03,31.03v42.867H42.227v263.918h-1.069
	l-30.601,36.72V512h490.887v-42.455L470.843,432.825z M168.907,55.423c0-10.547,4.126-20.48,11.617-27.972
	c7.49-7.491,17.424-11.616,27.971-11.616h95.01c21.829,0,39.588,17.758,39.588,39.588c0,10.547-4.126,20.48-11.617,27.971
	c-7.491,7.491-17.424,11.617-27.971,11.617h-95.01C186.666,95.01,168.907,77.252,168.907,55.423z M95.01,132.599l21.753-21.753
	h278.472l21.754,21.753v36.309H95.01V132.599z M485.608,496.165H26.392V475.28l22.183-26.62h297.157v-15.835H58.062V184.742h395.876
	V448.66h9.487l22.183,26.62V496.165z"/>
<path d="M89.732,395.876h332.536V221.691H89.732V395.876z M105.567,237.526h300.866v142.515H105.567V237.526z"/>
<g>
	<rect x="372.124" y="432.825" style="fill:#FFFFFF;" width="52.784" height="15.835"/>
	<rect x="176.825" y="131.959" style="fill:#FFFFFF;" width="158.351" height="15.835"/>
	<rect x="356.289" y="131.959" style="fill:#FFFFFF;" width="21.113" height="15.835"/>
	<rect x="134.598" y="131.959" style="fill:#FFFFFF;" width="21.113" height="15.835"/>
	<rect x="203.217" y="47.505" style="fill:#FFFFFF;" width="105.567" height="15.835"/>
	<polygon style="fill:#FFFFFF;" points="190.021,258.639 155.711,258.639 155.711,274.474 174.186,274.474 174.186,343.093 
		155.711,343.093 155.711,358.928 208.495,358.928 208.495,343.093 190.021,343.093 	"/>
	<path style="fill:#FFFFFF;" d="M221.691,358.928h63.34V258.639h-63.34V358.928z M237.526,274.474h31.67v68.619h-31.67V274.474z"/>
	<path style="fill:#FFFFFF;" d="M300.866,358.928h63.34V258.639h-63.34V358.928z M316.701,274.474h31.67v68.619h-31.67V274.474z"/>
</g>
<g>
</g>
<g>
</g>
<g>
</g>
<g>
</g>
<g>
</g>
<g>
</g>
<g>
</g>
<g>
</g>
<g>
</g>
<g>
</g>
<g>
</g>
<g>
</g>
<g>
</g>
<g>
</g>
<g>
</g>
</svg>
